# xmcd
#
# Track frame offsets: 
#        150
#        16141
#        30063
#        44682
#        60746
#        76109
#        92765
#        107686
#        123061
#        138117
#        152171
#        166265
#        183430
#        199701
#        214590
#        230770
#        245821
#        260425
#
# Disc length: 3698 seconds
#
# Revision: 0
# Processed by: cddbd v1.5.2PL0 Copyright (c) Steve Scherf et al.
# Submitted via: ExactAudioCopy v1.1
#
DISCID=e40e7012
DTITLE=Lindsay - 10 Jaar Lindsay
DYEAR=2018
DGENRE=Chanson
TTITLE0=Van 's Morgens Vroeg Tot 's Avonds Laat
TTITLE1=Ik Lig Nog Steeds Van Jou Te Dromen
TTITLE2=Voor 100%
TTITLE3=Deze Nacht Mag Eeuwig Duren (Met The Sunsets)
TTITLE4=Ga Met Me Mee
TTITLE5=Kom In Mijn Armen (Met Christoff)
TTITLE6=Dag En Nacht
TTITLE7=Bella Romantica
TTITLE8=De Kracht Van Mijn Gevoel
TTITLE9=Duizend En Eén Nacht (Met Jan Smit)
TTITLE10=Tijd Voor Gezelligheid
TTITLE11=De Grootste Liefde
TTITLE12=Hartstilstand
TTITLE13=Ware Liefde
TTITLE14=7x Goed, 7x Slecht
TTITLE15=Niet Voor Even, Maar Voor Altijd
TTITLE16=Kleine Prinses
TTITLE17=Een Verlangen Te Groot
EXTD=
EXTT0=
EXTT1=
EXTT2=
EXTT3=
EXTT4=
EXTT5=
EXTT6=
EXTT7=
EXTT8=
EXTT9=
EXTT10=
EXTT11=
EXTT12=
EXTT13=
EXTT14=
EXTT15=
EXTT16=
EXTT17=
PLAYORDER=
